<svg width="512" height="512" viewBox="0 0 512 512" fill="none" xmlns="http://www.w3.org/2000/svg">
<g clip-path="url(#clip0_160_203)">
<path d="M493.169 0.00599568H312.182C301.796 0.00599568 293.351 8.47335 293.351 18.8873V100.668C293.351 115.807 281.065 128.125 265.966 128.125H193.015C167.632 128.125 142.923 132.904 119.577 142.33C96.0277 151.84 75.0145 165.622 57.1269 183.286C20.5041 219.458 0.212156 267.737 0.00178343 319.228C-0.2146 370.183 19.2658 418.232 54.8548 454.549C91.1591 491.594 139.671 512 191.435 512H281.48C287.262 512 292.636 509.39 296.23 504.852L451.305 286.076C455.879 280.26 456.696 272.805 453.468 266.14C450.253 259.474 443.911 255.497 436.53 255.497H317.315C302.217 255.497 289.931 243.178 289.931 228.04V152.689C289.931 137.551 302.217 125.232 317.315 125.232H493.169C503.555 125.232 512 116.765 512 106.351V18.8812C512 8.46732 503.555 0 493.169 0V0.00599568ZM293.357 280.808V359.317C293.357 374.455 281.071 386.774 265.972 386.774H191.435C173.565 386.774 156.789 379.747 144.179 366.988C131.581 354.224 124.729 337.326 124.897 319.409C125.245 282.984 155.455 253.357 192.222 253.357H265.972C281.071 253.357 293.357 265.676 293.357 280.814V280.808Z" fill="#C1F806"/>
</g>
<defs>
<clipPath id="clip0_160_203">
<rect width="512" height="512" fill="white"/>
</clipPath>
</defs>
</svg>
